<svg width="30" height="31" viewBox="0 0 30 31" fill="none" xmlns="http://www.w3.org/2000/svg">
<path d="M21.875 8.33332H21.8875M8.75 2.56409H21.25C24.7018 2.56409 27.5 5.43406 27.5 8.97434V21.7949C27.5 25.3351 24.7018 28.2051 21.25 28.2051H8.75C5.29822 28.2051 2.5 25.3351 2.5 21.7949V8.97434C2.5 5.43406 5.29822 2.56409 8.75 2.56409ZM20 14.5769C20.1543 15.6439 19.9766 16.7336 19.4922 17.691C19.0078 18.6485 18.2414 19.4249 17.302 19.9098C16.3626 20.3948 15.2981 20.5636 14.2597 20.3922C13.2214 20.2208 12.2622 19.718 11.5185 18.9553C10.7749 18.1926 10.2847 17.2088 10.1176 16.1438C9.9505 15.0789 10.1151 13.987 10.5879 13.0235C11.0607 12.0601 11.8177 11.274 12.7512 10.7772C13.6847 10.2804 14.7472 10.0982 15.7875 10.2564C16.8487 10.4178 17.8311 10.9249 18.5896 11.7029C19.3482 12.4809 19.8426 13.4885 20 14.5769Z" stroke="white" stroke-width="2" stroke-linecap="round" stroke-linejoin="round"/>
</svg>
